# xmcd CD database file
#
# Track frame offsets:
#	150
#	20055
#	42075
#	61800
#	92792
#
# Disc length: 4440 seconds
#
# Revision: 1
# Processed by: cddbd v1.5.1PL2 Copyright (c) Steve Scherf et al.
# Submitted via: CDex 1.60beta1-cs1
#
DISCID=38115605
DTITLE=Folder 5 - MY MIRACLE
DYEAR=2002
DGENRE=J-POP
TTITLE0=MY MIRACLE
TTITLE1=カテナチオ
TTITLE2=Magical Eyes (mochi2 wonder mix)
TTITLE3=MY MIRACLE (instrumental)
TTITLE4=データ
EXTD=YEAR: 2002
EXTT0=
EXTT1=
EXTT2=
EXTT3=
EXTT4=
PLAYORDER=
